<?xml version="1.0" encoding="UTF-8"?> <!-- Generator: Adobe Illustrator 22.0.0, SVG Export Plug-In . SVG Version: 6.00 Build 0) --> <svg xmlns="http://www.w3.org/2000/svg" xmlns:xlink="http://www.w3.org/1999/xlink" id="Слой_1" x="0px" y="0px" viewBox="0 0 1553.4 323" style="enable-background:new 0 0 1553.4 323;" xml:space="preserve"> <style type="text/css"> .st0{fill:#FFFFFF;} </style> <g> <g> <g> <path class="st0" d="M151.7,85.4v9.5c0,27.4-8.4,45-27.1,53.7c22.5,8.8,31.3,29,31.3,57.2v21.7c0,41.2-21.7,63.3-63.7,63.3H26.3 V24h63.3C133,24,151.7,44.3,151.7,85.4z M68.2,132.7h16.4c15.6,0,25.2-6.9,25.2-28.2V89.6c0-19.1-6.5-27.4-21.3-27.4H68.2V132.7z M68.2,252.7h24c14.1,0,21.7-6.5,21.7-26.3v-23.3c0-24.8-8-32.4-27.1-32.4H68.2V252.7z"></path> <path class="st0" d="M274.4,290.9l-7.2-48.4h-51.5l-7.2,48.4H170L212.7,24H274l42.7,266.8h-42.3V290.9z M261.4,206.2L241.2,71.3 L221,206.2H261.4z"></path> <path class="st0" d="M392.5,21c40.8,0,61.7,24.4,61.7,67.1v8.4h-39.6V85.4c0-19.1-7.6-26.3-21-26.3s-21,7.2-21,26.3 c0,54.9,81.9,65.2,81.9,141.4c0,42.7-21.3,67.1-62.5,67.1s-62.5-24.4-62.5-67.1v-16.4h39.6v19.1c0,19.1,8.4,25.9,21.7,25.9 c13.3,0,21.7-6.9,21.7-25.9c0-54.9-81.9-65.2-81.9-141.4C330.8,45.4,351.8,21,392.5,21z"></path> <path class="st0" d="M520.6,24v266.8h-41.9V24H520.6z"></path> <path class="st0" d="M672.6,226.8c0,42.7-21.3,67.1-62.5,67.1s-62.5-24.4-62.5-67.1V88.1c0-42.7,21.3-67.1,62.5-67.1 s62.5,24.4,62.5,67.1V114H633V85.4c0-19.1-8.4-26.3-21.7-26.3s-21.7,7.2-21.7,26.3v144.1c0,19.1,8.4,25.9,21.7,25.9 s21.7-6.9,21.7-25.9v-38.1h39.6V226.8z"></path> <path class="st0" d="M764.5,24c41.9,0,62.5,23.3,62.5,66v134.9c0,42.7-20.6,65.9-62.5,65.9h-66.3V24H764.5z M740.1,252.7h23.6 c13.3,0,21.3-6.9,21.3-25.9V88.1c0-19.1-8-25.9-21.3-25.9h-23.6V252.7z"></path> <path class="st0" d="M953.1,136.5v38.1h-57.5v78.1H968v38.1H853.6V24H968v38.1h-72.4v74.3h57.5V136.5z"></path> <path class="st0" d="M1115.4,226.8c0,42.7-21.3,67.1-62.5,67.1c-41.2,0-62.5-24.4-62.5-67.1V88.1c0-42.7,21.3-67.1,62.5-67.1 c41.2,0,62.5,24.4,62.5,67.1V114h-39.6V85.4c0-19.1-8.4-26.3-21.7-26.3s-21.7,7.2-21.7,26.3v144.1c0,19.1,8.4,25.9,21.7,25.9 s21.7-6.9,21.7-25.9v-38.1h39.6V226.8z"></path> <path class="st0" d="M1201.2,21c41.2,0,63.7,24.4,63.7,67.1v138.7c0,42.7-22.5,67.1-63.7,67.1s-63.7-24.4-63.7-67.1V88.1 C1137.5,45.4,1160,21,1201.2,21z M1201.2,255.8c13.3,0,21.7-7.2,21.7-26.3V85.4c0-19.1-8.4-26.3-21.7-26.3 c-13.3,0-21.7,7.2-21.7,26.3v144.1C1179.5,248.5,1187.8,255.8,1201.2,255.8z"></path> <path class="st0" d="M1375.7,258.1v-41.9c0-24.8-8.4-33.9-27.4-33.9h-14.5v108.6h-41.9V24h63.3c43.5,0,62.1,20.2,62.1,61.4v21 c0,27.4-8.8,45.4-27.4,54.1c21,8.8,27.8,29,27.8,56.8v41.2c0,13,0.4,22.5,4.6,32.4h-42.7C1377.2,284,1375.7,279.8,1375.7,258.1z M1333.8,144.1h16.4c15.6,0,25.2-6.9,25.2-28.2V89.6c0-19.1-6.5-27.4-21.3-27.4h-20.2L1333.8,144.1L1333.8,144.1z"></path> </g> <g> <path class="st0" d="M1474.8,25.6V36h-11.9v62.3h-11.4V36h-11.9V25.6H1474.8z"></path> <path class="st0" d="M1511.8,25.6h15.9v72.7h-10.8V46.2l-7.9,52.2h-10.8l-8.5-51.4v51.4h-10V25.6h15.9l8.4,51.6L1511.8,25.6z"></path> </g> </g> </g> </svg> 