<svg class="t-sociallinks__svg" role="presentation" width="30px" height="30px" viewBox="0 0 100 100" fill="none" xmlns="http://www.w3.org/2000/svg"><path fill-rule="evenodd" clip-rule="evenodd" d="M50 100c27.6142 0 50-22.3858 50-50S77.6142 0 50 0 0 22.3858 0 50s22.3858 50 50 50Zm15.246-69.7382C61.5715 26.7539 56.8667 25 51.1317 25c-6.8481 0-12.2498 2.0044-16.2024 6.0131C30.9767 35.0218 29 39.4761 29 44.3761c0 6.1244 2.1158 10.0494 6.3481 11.7757.3342 0 .6123.0142.8351.0419.2228.0276.418-.1533.5846-.5428.1676-.3895.279-.6818.3342-.8769.0553-.1952.1248-.5294.2086-1.0026.0829-.4733.1533-.7656.2086-.877.1666-.557.0276-1.1132-.418-1.6702-1.3921-1.6701-2.0881-3.703-2.0881-6.0968 0-4.064 1.4046-7.5551 4.2164-10.4783 2.8118-2.9232 6.5006-4.3848 11.0663-4.3848 4.064 0 7.2243 1.1006 9.4791 3.2993 2.2548 2.1986 3.3822 5.0523 3.3822 8.5602 0 4.5649-.918 8.463-2.7557 11.6919-1.8377 3.229-4.1762 4.8438-7.0157 4.8438-1.6702 0-3.0061-.5988-4.0087-1.7958-1.0026-1.1969-1.3083-2.6024-.9189-4.2172.2228-.9465.5847-2.2138 1.0856-3.8002.5008-1.5872.9046-2.9793 1.2111-4.1762.3057-1.197.459-2.213.459-3.048 0-1.3368-.3618-2.4358-1.0855-3.2993-.7237-.8636-1.7539-1.295-3.0899-1.295-1.6701 0-3.0899.7656-4.2591 2.2967-1.1693 1.5312-1.754 3.4384-1.754 5.7208 0 1.9482.3342 3.5631 1.0026 4.8438L38.103 66.8428c-.7237 3.1176-.7522 7.0434-.0838 11.7758.1114.4447.3342.5009.6684.1667 2.8403-3.564 4.7048-6.9604 5.596-10.1894.2781-.8903 1.0017-3.7298 2.171-8.5183.557 1.0579 1.5596 1.9759 3.007 2.7557 1.4473.7798 2.9785 1.1693 4.5933 1.1693 4.8991 0 8.9079-2.0044 12.0262-6.0131 3.1184-4.0087 4.6771-9.103 4.6771-15.2836 0-4.7885-1.8376-8.9363-5.5122-12.4441Z" fill="#ffffff"></path></svg>